<mxfile host="65bd71144e">
    <diagram id="mvGKc9tTOII4MMOfKOpj" name="Page-1">
        <mxGraphModel dx="781" dy="452" grid="1" gridSize="10" guides="1" tooltips="1" connect="1" arrows="1" fold="1" page="1" pageScale="1" pageWidth="850" pageHeight="1100" math="0" shadow="0">
            <root>
                <mxCell id="0"/>
                <mxCell id="1" parent="0"/>
                <mxCell id="6" value="" style="group" parent="1" vertex="1" connectable="0">
                    <mxGeometry x="520" y="40" width="150" height="100" as="geometry"/>
                </mxCell>
                <mxCell id="7" value="" style="sketch=0;pointerEvents=1;shadow=0;dashed=0;html=1;labelPosition=center;verticalLabelPosition=bottom;verticalAlign=middle;outlineConnect=0;align=center;shape=mxgraph.office.concepts.folder;labelBorderColor=none;fontFamily=Courier New;fontSize=16;" parent="6" vertex="1">
                    <mxGeometry y="8.333333333333334" width="130" height="91.66666666666667" as="geometry"/>
                </mxCell>
                <mxCell id="8" value="training spectrograms" style="whiteSpace=wrap;html=1;verticalAlign=top;rounded=1;labelBackgroundColor=none;labelBorderColor=none;arcSize=0;fontSize=11;flipV=0;flipH=1;fontFamily=Courier New;" parent="6" vertex="1">
                    <mxGeometry x="17.5" y="40" width="95" height="40" as="geometry"/>
                </mxCell>
                <mxCell id="20" style="edgeStyle=orthogonalEdgeStyle;html=1;entryX=0.5;entryY=0;entryDx=0;entryDy=0;" parent="1" source="3" target="19" edge="1">
                    <mxGeometry relative="1" as="geometry"/>
                </mxCell>
                <mxCell id="3" value="" style="sketch=0;pointerEvents=1;shadow=0;dashed=0;html=1;labelPosition=center;verticalLabelPosition=bottom;verticalAlign=middle;outlineConnect=0;align=center;shape=mxgraph.office.concepts.folder;labelBorderColor=none;fontFamily=Courier New;fontSize=16;container=0;" parent="1" vertex="1">
                    <mxGeometry x="190" y="50" width="129" height="90" as="geometry"/>
                </mxCell>
                <mxCell id="4" value="training eeg data" style="whiteSpace=wrap;html=1;verticalAlign=top;rounded=1;labelBackgroundColor=none;labelBorderColor=none;arcSize=0;fontSize=11;flipV=1;fontFamily=Courier New;container=0;" parent="1" vertex="1">
                    <mxGeometry x="210" y="80" width="90" height="40" as="geometry"/>
                </mxCell>
                <mxCell id="70" style="edgeStyle=orthogonalEdgeStyle;html=1;entryX=0.5;entryY=0;entryDx=0;entryDy=0;" edge="1" parent="1" source="10" target="18">
                    <mxGeometry relative="1" as="geometry"/>
                </mxCell>
                <mxCell id="73" style="edgeStyle=orthogonalEdgeStyle;html=1;exitX=0;exitY=0.5;exitDx=0;exitDy=0;entryX=0.5;entryY=0;entryDx=0;entryDy=0;" edge="1" parent="1" source="10" target="17">
                    <mxGeometry relative="1" as="geometry"/>
                </mxCell>
                <mxCell id="10" value="initialize model" style="whiteSpace=wrap;html=1;fontSize=16;fontFamily=Courier New;sketch=0;shadow=0;dashed=0;labelBorderColor=none;" parent="1" vertex="1">
                    <mxGeometry x="360" y="160" width="120" height="40" as="geometry"/>
                </mxCell>
                <mxCell id="34" style="edgeStyle=orthogonalEdgeStyle;html=1;" parent="1" source="17" target="31" edge="1">
                    <mxGeometry relative="1" as="geometry"/>
                </mxCell>
                <mxCell id="17" value="cnn" style="whiteSpace=wrap;html=1;fontSize=16;fontFamily=Courier New;sketch=0;shadow=0;dashed=0;labelBorderColor=none;" parent="1" vertex="1">
                    <mxGeometry x="199" y="200" width="120" height="20" as="geometry"/>
                </mxCell>
                <mxCell id="33" style="edgeStyle=orthogonalEdgeStyle;html=1;" parent="1" source="18" target="32" edge="1">
                    <mxGeometry relative="1" as="geometry"/>
                </mxCell>
                <mxCell id="18" value="transformer" style="whiteSpace=wrap;html=1;fontSize=16;fontFamily=Courier New;sketch=0;shadow=0;dashed=0;labelBorderColor=none;" parent="1" vertex="1">
                    <mxGeometry x="520" y="200" width="120" height="20" as="geometry"/>
                </mxCell>
                <mxCell id="22" style="edgeStyle=orthogonalEdgeStyle;html=1;exitX=0.5;exitY=1;exitDx=0;exitDy=0;" parent="1" source="19" target="10" edge="1">
                    <mxGeometry relative="1" as="geometry"/>
                </mxCell>
                <mxCell id="19" value="load dataset" style="whiteSpace=wrap;html=1;fontSize=16;fontFamily=Courier New;sketch=0;shadow=0;dashed=0;labelBorderColor=none;" parent="1" vertex="1">
                    <mxGeometry x="360" y="120" width="120" height="20" as="geometry"/>
                </mxCell>
                <mxCell id="72" style="edgeStyle=orthogonalEdgeStyle;html=1;entryX=0;entryY=0.5;entryDx=0;entryDy=0;exitX=0.5;exitY=1;exitDx=0;exitDy=0;" edge="1" parent="1" source="31" target="37">
                    <mxGeometry relative="1" as="geometry"/>
                </mxCell>
                <mxCell id="31" value="train cnn" style="whiteSpace=wrap;html=1;fontSize=16;fontFamily=Courier New;sketch=0;shadow=0;dashed=0;labelBorderColor=none;" parent="1" vertex="1">
                    <mxGeometry x="199" y="240" width="120" height="40" as="geometry"/>
                </mxCell>
                <mxCell id="71" style="edgeStyle=orthogonalEdgeStyle;html=1;exitX=0.5;exitY=1;exitDx=0;exitDy=0;entryX=1;entryY=0.5;entryDx=0;entryDy=0;" edge="1" parent="1" source="32" target="37">
                    <mxGeometry relative="1" as="geometry"/>
                </mxCell>
                <mxCell id="32" value="train transformer" style="whiteSpace=wrap;html=1;fontSize=16;fontFamily=Courier New;sketch=0;shadow=0;dashed=0;labelBorderColor=none;" parent="1" vertex="1">
                    <mxGeometry x="520" y="240" width="120" height="40" as="geometry"/>
                </mxCell>
                <mxCell id="37" value="save model" style="whiteSpace=wrap;html=1;fontSize=16;fontFamily=Courier New;sketch=0;shadow=0;dashed=0;labelBorderColor=none;verticalAlign=top;" parent="1" vertex="1">
                    <mxGeometry x="360" y="280" width="120" height="80" as="geometry"/>
                </mxCell>
                <mxCell id="42" style="edgeStyle=orthogonalEdgeStyle;html=1;entryX=0.5;entryY=0;entryDx=0;entryDy=0;" parent="1" source="7" target="19" edge="1">
                    <mxGeometry relative="1" as="geometry"/>
                </mxCell>
                <mxCell id="74" value="" style="shape=datastore;whiteSpace=wrap;html=1;labelPosition=center;verticalLabelPosition=bottom;align=center;verticalAlign=top;fontFamily=Courier New;fontSize=10;fillColor=#00BEF2;fontColor=#ffffff;strokeColor=#006EAF;" vertex="1" parent="1">
                    <mxGeometry x="402.5" y="310" width="35" height="40" as="geometry"/>
                </mxCell>
            </root>
        </mxGraphModel>
    </diagram>
</mxfile>